{"title":"Welcome To Karachi 2015 Movies PDVDRip x264 AAC New +Sample â˜»rDX","uid":11973178,"size":739816990,"categoryP":"video","categoryS":"movies","magnet":"?xt=urn:btih:d14211ccbcb9b19797a6955d77f5a9af114a1bf6&amp;dn=Welcome+To+Karachi+2015+Movies+PDVDRip+x264+AAC+New+%2BSample+%E2%98%BBrDX&amp;tr=udp%3A%2F%2Ftracker.openbittorrent.com%3A80&amp;tr=udp%3A%2F%2Fopen.demonii.com%3A1337&amp;tr=udp%3A%2F%2Ftracker.coppersurfer.tk%3A6969&amp;tr=udp%3A%2F%2Fexodus.desync.com%3A6969","seeders":1,"leechers":0,"uploader":"basicssom","files":2,"time":1432916533,"description":"----------------------------------------------------------------\nWelcome To Karachi 2015 Hindi Movies PDVDRip x264 AAC New Source with Sample ~ â˜»rDXâ˜»\n\nSCREEN SHOTS &amp; POSTER:\n &lt;a href=&quot;\nhttp://imagehosting4u.com/2015/5/WelcomeToKarachi/11.html&quot; rel=&quot;nofollow&quot; target=&quot;_NEW&quot;&gt;\nhttp://imagehosting4u.com/2015/5/WelcomeToKarachi/11.html&lt;/a&gt; &lt;a href=&quot;\nhttp://imagehosting4u.com/2015/5/WelcomeToKarachi/1.html&quot; rel=&quot;nofollow&quot; target=&quot;_NEW&quot;&gt;\nhttp://imagehosting4u.com/2015/5/WelcomeToKarachi/1.html&lt;/a&gt; &lt;a href=&quot;\nhttp://imagehosting4u.com/2015/5/WelcomeToKarachi/2.html&quot; rel=&quot;nofollow&quot; target=&quot;_NEW&quot;&gt;\nhttp://imagehosting4u.com/2015/5/WelcomeToKarachi/2.html&lt;/a&gt; &lt;a href=&quot;\nhttp://imagehosting4u.com/2015/5/WelcomeToKarachi/3.html&quot; rel=&quot;nofollow&quot; target=&quot;_NEW&quot;&gt;\nhttp://imagehosting4u.com/2015/5/WelcomeToKarachi/3.html&lt;/a&gt; &lt;a href=&quot;\nhttp://imagehosting4u.com/2015/5/WelcomeToKarachi/4.html&quot; rel=&quot;nofollow&quot; target=&quot;_NEW&quot;&gt;\nhttp://imagehosting4u.com/2015/5/WelcomeToKarachi/4.html&lt;/a&gt; &lt;a href=&quot;\nhttp://imagehosting4u.com/2015/5/WelcomeToKarachi/5.html&quot; rel=&quot;nofollow&quot; target=&quot;_NEW&quot;&gt;\nhttp://imagehosting4u.com/2015/5/WelcomeToKarachi/5.html&lt;/a&gt; &lt;a href=&quot;\nhttp://imagehosting4u.com/2015/5/WelcomeToKarachi/6.html&quot; rel=&quot;nofollow&quot; target=&quot;_NEW&quot;&gt;\nhttp://imagehosting4u.com/2015/5/WelcomeToKarachi/6.html&lt;/a&gt; &lt;a href=&quot;\nhttp://imagehosting4u.com/2015/5/WelcomeToKarachi/7.html&quot; rel=&quot;nofollow&quot; target=&quot;_NEW&quot;&gt;\nhttp://imagehosting4u.com/2015/5/WelcomeToKarachi/7.html&lt;/a&gt; &lt;a href=&quot;\nhttp://imagehosting4u.com/2015/5/WelcomeToKarachi/8.html&quot; rel=&quot;nofollow&quot; target=&quot;_NEW&quot;&gt;\nhttp://imagehosting4u.com/2015/5/WelcomeToKarachi/8.html&lt;/a&gt; &lt;a href=&quot;\nhttp://imagehosting4u.com/2015/5/WelcomeToKarachi/9.html&quot; rel=&quot;nofollow&quot; target=&quot;_NEW&quot;&gt;\nhttp://imagehosting4u.com/2015/5/WelcomeToKarachi/9.html&lt;/a&gt; &lt;a href=&quot;\nhttp://imagehosting4u.com/2015/5/WelcomeToKarachi/10.html&quot; rel=&quot;nofollow&quot; target=&quot;_NEW&quot;&gt;\nhttp://imagehosting4u.com/2015/5/WelcomeToKarachi/10.html&lt;/a&gt;\n\nFormat                                   : Matroska\nFormat version                           : Version 4 / Version 2\nFile size                                : 697 MiB\nDuration                                 : 2h 8mn\nOverall bit rate                         : 760 Kbps\nMovie name                               : Welcome To Karachi 2015 Hindi Movies PDVDRip x264 AAC New Source ~ rDX ~\n\nVideo\nID                                       : 1\nFormat                                   : AVC\nFormat/Info                              : Advanced Video Codec\nFormat profile                           : &lt;a class=&quot;__cf_email__&quot; href=&quot;/cdn-cgi/l/email-protection&quot; data-cfemail=&quot;fcb4959b94bcb0ced2cd&quot;&gt;[email&amp;#160;protected]&lt;/a&gt;&lt;script data-cfhash='f9e31' type=&quot;text/javascript&quot;&gt;\n/* &lt;![CDATA[ */!function(){try{var t=&quot;currentScript&quot;in document?document.currentScript:function(){for(var t=document.getElementsByTagName(&quot;script&quot;),e=t.length;e--;)if(t[e].getAttribute(&quot;data-cfhash&quot;))return t[e]}();if(t&amp;&amp;t.previousSibling){var e,r,n,i,c=t.previousSibling,a=c.getAttribute(&quot;data-cfemail&quot;);if(a){for(e=&quot;&quot;,r=parseInt(a.substr(0,2),16),n=2;a.length-n;n+=2)i=parseInt(a.substr(n,2),16)^r,e+=String.fromCharCode(i);e=document.createTextNode(e),c.parentNode.replaceChild(e,c)}t.parentNode.removeChild(t);}}catch(u){}}()/* ]]&gt; */&lt;/script&gt;\nFormat settings, CABAC                   : Yes\nFormat settings, ReFrames                : 4 frames\nCodec ID                                 : V_MPEG4/ISO/AVC\nDuration                                 : 2h 8mn\nBit rate                                 : 374 Kbps\nWidth                                    : 640 pixels\nHeight                                   : 272 pixels\nDisplay aspect ratio                     : 2.35:1\nFrame rate mode                          : Constant\nFrame rate                               : 25.000 fps\nColor space                              : YUV\nChroma subsampling                       : 4:2:0\nBit depth                                : 8 bits\nScan type                                : Progressive\nBits/(Pixel*Frame)                       : 0.086\nStream size                              : 331 MiB (47%)\nTitle                                    : ~ rDX ~\nWriting library                          : x264\nDefault                                  : Yes\nForced                                   : No\n\nAudio\nID                                       : 2\nFormat                                   : AC-3\nFormat/Info                              : Audio Coding 3\nMode extension                           : CM (complete main)\nFormat settings, Endianness              : Big\nCodec ID                                 : A_AC3\nDuration                                 : 2h 8mn\nBit rate mode                            : Constant\nBit rate                                 : 384 Kbps\nChannel(s)                               : 2 channels\nChannel positions                        : Front: L R\nSampling rate                            : 48.0 KHz\nBit depth                                : 16 bits\nCompression mode                         : Lossy\nStream size                              : 353 MiB (51%)\nTitle                                    : ~ rDX ~\nDefault                                  : Yes\nForced                                   : No","torrent":{"xt":"urn:btih:d14211ccbcb9b19797a6955d77f5a9af114a1bf6","amp;dn":"Welcome+To+Karachi+2015+Movies+PDVDRip+x264+AAC+New+%2BSample+%E2%98%BBrDX","amp;tr":["udp%3A%2F%2Ftracker.openbittorrent.com%3A80","udp%3A%2F%2Fopen.demonii.com%3A1337","udp%3A%2F%2Ftracker.coppersurfer.tk%3A6969","udp%3A%2F%2Fexodus.desync.com%3A6969"],"infoHash":"d14211ccbcb9b19797a6955d77f5a9af114a1bf6","infoHashBuffer":{"type":"Buffer","data":[209,66,17,204,188,185,177,151,151,166,149,93,119,245,169,175,17,74,27,246]},"announce":[],"urlList":[]}}